<?xml version="1.0" encoding="iso-8859-1"?>
<!-- Generator: Adobe Illustrator 19.0.0, SVG Export Plug-In . SVG Version: 6.00 Build 0)  -->
<svg version="1.1" id="Capa_1" xmlns="http://www.w3.org/2000/svg" xmlns:xlink="http://www.w3.org/1999/xlink" x="0px" y="0px"
	 viewBox="0 0 512 512" fill="white" style="enable-background:new 0 0 512 512;" xml:space="preserve">
<g>
	<g>
		<g>
			<path d="M180.228,310.841c-3.301-6.977-10.327-11.428-18.045-11.428H20.46c-11.024,0-19.961,8.937-19.961,19.961v19.963
				c0,11.024,8.937,19.961,19.961,19.961s19.961-8.937,19.961-19.961l79.555-0.002L5.032,479.375
				c-4.897,5.966-5.916,14.221-2.616,21.198C5.716,507.551,12.743,512,20.46,512h138.729c11.024,0,19.961-8.937,19.961-19.961
				v-19.961c0-11.024-8.937-19.961-19.961-19.961s-19.961,8.937-19.961,19.961h-76.56l114.945-140.039
				C182.51,326.072,183.529,317.817,180.228,310.841z"/>
			<path d="M387.743,410.698c11.024,0,19.961-8.937,19.961-19.961V19.961C407.704,8.937,398.768,0,387.743,0
				c-11.024,0-19.961,8.937-19.961,19.961v370.776C367.782,401.761,376.719,410.698,387.743,410.698z"/>
			<path d="M505.742,390.684c-7.748-7.844-20.385-7.922-28.229-0.175l-75.568,74.638c-0.029,0.029-0.059,0.058-0.088,0.087
				c-7.783,7.783-20.447,7.782-28.222,0.006l-74.57-74.638c-7.791-7.8-20.431-7.806-28.229-0.013
				c-7.799,7.791-7.805,20.43-0.013,28.229l74.576,74.645c11.675,11.673,27.01,17.511,42.344,17.511
				c15.314,0,30.626-5.82,42.293-17.461l75.53-74.6C513.411,411.165,513.488,398.527,505.742,390.684z"/>
			<path d="M91.322,0C41.242,0,0.499,40.742,0.499,90.823v101.801c0,11.024,8.937,19.961,19.961,19.961s19.961-8.937,19.961-19.961
				v-40.92h101.801v40.92c0,11.024,8.937,19.961,19.961,19.961s19.961-8.937,19.961-19.961V90.823
				C182.145,40.742,141.402,0,91.322,0z M142.223,111.782H40.421V90.823c0-28.067,22.834-50.901,50.901-50.901
				c28.066,0,50.901,22.833,50.901,50.901V111.782z"/>
		</g>
	</g>
</g>
<g>
</g>
<g>
</g>
<g>
</g>
<g>
</g>
<g>
</g>
<g>
</g>
<g>
</g>
<g>
</g>
<g>
</g>
<g>
</g>
<g>
</g>
<g>
</g>
<g>
</g>
<g>
</g>
<g>
</g>
</svg>
